<mxfile host="app.diagrams.net" modified="2021-07-15T01:26:09.721Z" agent="5.0 (Windows NT 10.0; Win64; x64) AppleWebKit/537.36 (KHTML, like Gecko) Chrome/91.0.4472.124 Safari/537.36" etag="uhYel3wwhFU7qMxOcsWs" version="14.8.6" type="github">
  <diagram id="C5RBs43oDa-KdzZeNtuy" name="Page-1">
    <mxGraphModel dx="1038" dy="579" grid="1" gridSize="10" guides="1" tooltips="1" connect="1" arrows="1" fold="1" page="1" pageScale="1" pageWidth="827" pageHeight="1169" math="0" shadow="0">
      <root>
        <mxCell id="WIyWlLk6GJQsqaUBKTNV-0" />
        <mxCell id="WIyWlLk6GJQsqaUBKTNV-1" parent="WIyWlLk6GJQsqaUBKTNV-0" />
        <mxCell id="nmsRLobFBW5yZ9I8E1sv-15" style="edgeStyle=orthogonalEdgeStyle;rounded=0;orthogonalLoop=1;jettySize=auto;html=1;entryX=0.5;entryY=0;entryDx=0;entryDy=0;strokeColor=#CC0000;" edge="1" parent="WIyWlLk6GJQsqaUBKTNV-1" source="nmsRLobFBW5yZ9I8E1sv-1" target="nmsRLobFBW5yZ9I8E1sv-2">
          <mxGeometry relative="1" as="geometry" />
        </mxCell>
        <mxCell id="nmsRLobFBW5yZ9I8E1sv-1" value="开始" style="rounded=1;whiteSpace=wrap;html=1;" vertex="1" parent="WIyWlLk6GJQsqaUBKTNV-1">
          <mxGeometry x="60" y="60" width="120" height="60" as="geometry" />
        </mxCell>
        <mxCell id="nmsRLobFBW5yZ9I8E1sv-16" style="edgeStyle=orthogonalEdgeStyle;rounded=0;orthogonalLoop=1;jettySize=auto;html=1;entryX=0.5;entryY=0;entryDx=0;entryDy=0;strokeColor=#CC0000;" edge="1" parent="WIyWlLk6GJQsqaUBKTNV-1" source="nmsRLobFBW5yZ9I8E1sv-2" target="nmsRLobFBW5yZ9I8E1sv-3">
          <mxGeometry relative="1" as="geometry" />
        </mxCell>
        <mxCell id="nmsRLobFBW5yZ9I8E1sv-2" value="main" style="rounded=0;whiteSpace=wrap;html=1;" vertex="1" parent="WIyWlLk6GJQsqaUBKTNV-1">
          <mxGeometry x="60" y="190" width="120" height="60" as="geometry" />
        </mxCell>
        <mxCell id="nmsRLobFBW5yZ9I8E1sv-14" style="edgeStyle=orthogonalEdgeStyle;rounded=0;orthogonalLoop=1;jettySize=auto;html=1;entryX=0.5;entryY=0;entryDx=0;entryDy=0;strokeColor=#CC0000;" edge="1" parent="WIyWlLk6GJQsqaUBKTNV-1" source="nmsRLobFBW5yZ9I8E1sv-3" target="nmsRLobFBW5yZ9I8E1sv-4">
          <mxGeometry relative="1" as="geometry" />
        </mxCell>
        <mxCell id="nmsRLobFBW5yZ9I8E1sv-3" value="number_of_&lt;br&gt;datasources" style="rounded=0;whiteSpace=wrap;html=1;" vertex="1" parent="WIyWlLk6GJQsqaUBKTNV-1">
          <mxGeometry x="60" y="320" width="120" height="60" as="geometry" />
        </mxCell>
        <mxCell id="nmsRLobFBW5yZ9I8E1sv-17" style="edgeStyle=orthogonalEdgeStyle;rounded=0;orthogonalLoop=1;jettySize=auto;html=1;strokeColor=#CC0000;" edge="1" parent="WIyWlLk6GJQsqaUBKTNV-1" source="nmsRLobFBW5yZ9I8E1sv-4">
          <mxGeometry relative="1" as="geometry">
            <mxPoint x="120" y="580" as="targetPoint" />
          </mxGeometry>
        </mxCell>
        <mxCell id="nmsRLobFBW5yZ9I8E1sv-18" style="edgeStyle=orthogonalEdgeStyle;rounded=0;orthogonalLoop=1;jettySize=auto;html=1;entryX=0;entryY=0.5;entryDx=0;entryDy=0;strokeColor=#CC0000;" edge="1" parent="WIyWlLk6GJQsqaUBKTNV-1" source="nmsRLobFBW5yZ9I8E1sv-4" target="nmsRLobFBW5yZ9I8E1sv-5">
          <mxGeometry relative="1" as="geometry" />
        </mxCell>
        <mxCell id="nmsRLobFBW5yZ9I8E1sv-4" value="for(;;)" style="rounded=0;whiteSpace=wrap;html=1;" vertex="1" parent="WIyWlLk6GJQsqaUBKTNV-1">
          <mxGeometry x="60" y="450" width="120" height="60" as="geometry" />
        </mxCell>
        <mxCell id="nmsRLobFBW5yZ9I8E1sv-19" style="edgeStyle=orthogonalEdgeStyle;rounded=0;orthogonalLoop=1;jettySize=auto;html=1;entryX=0;entryY=0.5;entryDx=0;entryDy=0;strokeColor=#CC0000;" edge="1" parent="WIyWlLk6GJQsqaUBKTNV-1" source="nmsRLobFBW5yZ9I8E1sv-5" target="nmsRLobFBW5yZ9I8E1sv-6">
          <mxGeometry relative="1" as="geometry" />
        </mxCell>
        <mxCell id="nmsRLobFBW5yZ9I8E1sv-5" value="&lt;div&gt;random_sleep_factor 间隔采集&lt;/div&gt;&lt;div&gt;&lt;br&gt;&lt;/div&gt;" style="rounded=0;whiteSpace=wrap;html=1;" vertex="1" parent="WIyWlLk6GJQsqaUBKTNV-1">
          <mxGeometry x="250" y="450" width="120" height="60" as="geometry" />
        </mxCell>
        <mxCell id="nmsRLobFBW5yZ9I8E1sv-20" style="edgeStyle=orthogonalEdgeStyle;rounded=0;orthogonalLoop=1;jettySize=auto;html=1;strokeColor=#CC0000;" edge="1" parent="WIyWlLk6GJQsqaUBKTNV-1" source="nmsRLobFBW5yZ9I8E1sv-6" target="nmsRLobFBW5yZ9I8E1sv-7">
          <mxGeometry relative="1" as="geometry" />
        </mxCell>
        <mxCell id="nmsRLobFBW5yZ9I8E1sv-6" value="hash_foreach&lt;br&gt;收集数据" style="rounded=0;whiteSpace=wrap;html=1;" vertex="1" parent="WIyWlLk6GJQsqaUBKTNV-1">
          <mxGeometry x="440" y="450" width="120" height="60" as="geometry" />
        </mxCell>
        <mxCell id="nmsRLobFBW5yZ9I8E1sv-7" value="do_root_summary" style="rounded=0;whiteSpace=wrap;html=1;" vertex="1" parent="WIyWlLk6GJQsqaUBKTNV-1">
          <mxGeometry x="630" y="450" width="120" height="60" as="geometry" />
        </mxCell>
        <mxCell id="nmsRLobFBW5yZ9I8E1sv-21" style="edgeStyle=orthogonalEdgeStyle;rounded=0;orthogonalLoop=1;jettySize=auto;html=1;entryX=0;entryY=0.5;entryDx=0;entryDy=0;strokeColor=#CC0000;" edge="1" parent="WIyWlLk6GJQsqaUBKTNV-1" source="nmsRLobFBW5yZ9I8E1sv-8" target="nmsRLobFBW5yZ9I8E1sv-9">
          <mxGeometry relative="1" as="geometry" />
        </mxCell>
        <mxCell id="nmsRLobFBW5yZ9I8E1sv-25" style="edgeStyle=orthogonalEdgeStyle;rounded=0;orthogonalLoop=1;jettySize=auto;html=1;entryX=0.5;entryY=0;entryDx=0;entryDy=0;strokeColor=#CC0000;" edge="1" parent="WIyWlLk6GJQsqaUBKTNV-1" source="nmsRLobFBW5yZ9I8E1sv-8" target="nmsRLobFBW5yZ9I8E1sv-24">
          <mxGeometry relative="1" as="geometry" />
        </mxCell>
        <mxCell id="nmsRLobFBW5yZ9I8E1sv-8" value="tcp server" style="rounded=0;whiteSpace=wrap;html=1;" vertex="1" parent="WIyWlLk6GJQsqaUBKTNV-1">
          <mxGeometry x="60" y="585" width="120" height="60" as="geometry" />
        </mxCell>
        <mxCell id="nmsRLobFBW5yZ9I8E1sv-12" style="edgeStyle=orthogonalEdgeStyle;rounded=0;orthogonalLoop=1;jettySize=auto;html=1;entryX=0;entryY=0.5;entryDx=0;entryDy=0;strokeColor=#CC0000;" edge="1" parent="WIyWlLk6GJQsqaUBKTNV-1" source="nmsRLobFBW5yZ9I8E1sv-9" target="nmsRLobFBW5yZ9I8E1sv-10">
          <mxGeometry relative="1" as="geometry" />
        </mxCell>
        <mxCell id="nmsRLobFBW5yZ9I8E1sv-13" style="edgeStyle=orthogonalEdgeStyle;rounded=0;orthogonalLoop=1;jettySize=auto;html=1;strokeColor=#FF5112;entryX=0;entryY=0.5;entryDx=0;entryDy=0;" edge="1" parent="WIyWlLk6GJQsqaUBKTNV-1" source="nmsRLobFBW5yZ9I8E1sv-9" target="nmsRLobFBW5yZ9I8E1sv-11">
          <mxGeometry relative="1" as="geometry">
            <mxPoint x="390" y="750" as="targetPoint" />
            <Array as="points">
              <mxPoint x="290" y="730" />
            </Array>
          </mxGeometry>
        </mxCell>
        <mxCell id="nmsRLobFBW5yZ9I8E1sv-9" value="" style="rhombus;whiteSpace=wrap;html=1;" vertex="1" parent="WIyWlLk6GJQsqaUBKTNV-1">
          <mxGeometry x="250" y="575" width="80" height="80" as="geometry" />
        </mxCell>
        <mxCell id="nmsRLobFBW5yZ9I8E1sv-10" value="xml_port&lt;br&gt;落盘(用到一半的线程)" style="rounded=0;whiteSpace=wrap;html=1;" vertex="1" parent="WIyWlLk6GJQsqaUBKTNV-1">
          <mxGeometry x="400" y="585" width="120" height="60" as="geometry" />
        </mxCell>
        <mxCell id="nmsRLobFBW5yZ9I8E1sv-23" style="edgeStyle=orthogonalEdgeStyle;rounded=0;orthogonalLoop=1;jettySize=auto;html=1;entryX=0;entryY=0.5;entryDx=0;entryDy=0;strokeColor=#CC0000;" edge="1" parent="WIyWlLk6GJQsqaUBKTNV-1" source="nmsRLobFBW5yZ9I8E1sv-11" target="nmsRLobFBW5yZ9I8E1sv-22">
          <mxGeometry relative="1" as="geometry" />
        </mxCell>
        <mxCell id="nmsRLobFBW5yZ9I8E1sv-11" value="interactive_port" style="rounded=0;whiteSpace=wrap;html=1;" vertex="1" parent="WIyWlLk6GJQsqaUBKTNV-1">
          <mxGeometry x="400" y="700" width="120" height="60" as="geometry" />
        </mxCell>
        <mxCell id="nmsRLobFBW5yZ9I8E1sv-22" value="gweb" style="rounded=0;whiteSpace=wrap;html=1;" vertex="1" parent="WIyWlLk6GJQsqaUBKTNV-1">
          <mxGeometry x="590" y="700" width="120" height="60" as="geometry" />
        </mxCell>
        <mxCell id="nmsRLobFBW5yZ9I8E1sv-29" style="edgeStyle=orthogonalEdgeStyle;rounded=0;orthogonalLoop=1;jettySize=auto;html=1;strokeColor=#CC0000;" edge="1" parent="WIyWlLk6GJQsqaUBKTNV-1" source="nmsRLobFBW5yZ9I8E1sv-24" target="nmsRLobFBW5yZ9I8E1sv-27">
          <mxGeometry relative="1" as="geometry">
            <mxPoint x="250" y="810" as="targetPoint" />
          </mxGeometry>
        </mxCell>
        <mxCell id="nmsRLobFBW5yZ9I8E1sv-37" style="edgeStyle=orthogonalEdgeStyle;rounded=0;orthogonalLoop=1;jettySize=auto;html=1;entryX=0.5;entryY=0;entryDx=0;entryDy=0;strokeColor=#CC0000;" edge="1" parent="WIyWlLk6GJQsqaUBKTNV-1" source="nmsRLobFBW5yZ9I8E1sv-24" target="nmsRLobFBW5yZ9I8E1sv-36">
          <mxGeometry relative="1" as="geometry" />
        </mxCell>
        <mxCell id="nmsRLobFBW5yZ9I8E1sv-24" value="server_thread&lt;br&gt;循环处理&amp;nbsp;&lt;br&gt;xml_port" style="rounded=0;whiteSpace=wrap;html=1;" vertex="1" parent="WIyWlLk6GJQsqaUBKTNV-1">
          <mxGeometry x="60" y="800" width="120" height="60" as="geometry" />
        </mxCell>
        <mxCell id="nmsRLobFBW5yZ9I8E1sv-34" style="edgeStyle=orthogonalEdgeStyle;rounded=0;orthogonalLoop=1;jettySize=auto;html=1;entryX=0;entryY=0.5;entryDx=0;entryDy=0;strokeColor=#CC0000;" edge="1" parent="WIyWlLk6GJQsqaUBKTNV-1" source="nmsRLobFBW5yZ9I8E1sv-27" target="nmsRLobFBW5yZ9I8E1sv-32">
          <mxGeometry relative="1" as="geometry" />
        </mxCell>
        <mxCell id="nmsRLobFBW5yZ9I8E1sv-27" value="root_report_start&lt;br&gt;输出 xml 数据" style="rounded=0;whiteSpace=wrap;html=1;" vertex="1" parent="WIyWlLk6GJQsqaUBKTNV-1">
          <mxGeometry x="230" y="800" width="120" height="60" as="geometry" />
        </mxCell>
        <mxCell id="nmsRLobFBW5yZ9I8E1sv-35" style="edgeStyle=orthogonalEdgeStyle;rounded=0;orthogonalLoop=1;jettySize=auto;html=1;entryX=0;entryY=0.5;entryDx=0;entryDy=0;strokeColor=#CC0000;" edge="1" parent="WIyWlLk6GJQsqaUBKTNV-1" source="nmsRLobFBW5yZ9I8E1sv-32" target="nmsRLobFBW5yZ9I8E1sv-33">
          <mxGeometry relative="1" as="geometry" />
        </mxCell>
        <mxCell id="nmsRLobFBW5yZ9I8E1sv-32" value="process_path输出集群的状态信息" style="rounded=0;whiteSpace=wrap;html=1;" vertex="1" parent="WIyWlLk6GJQsqaUBKTNV-1">
          <mxGeometry x="400" y="800" width="120" height="60" as="geometry" />
        </mxCell>
        <mxCell id="nmsRLobFBW5yZ9I8E1sv-33" value="root_report_end&lt;br&gt;输出 xml 数据" style="rounded=0;whiteSpace=wrap;html=1;" vertex="1" parent="WIyWlLk6GJQsqaUBKTNV-1">
          <mxGeometry x="590" y="800" width="120" height="60" as="geometry" />
        </mxCell>
        <mxCell id="nmsRLobFBW5yZ9I8E1sv-39" style="edgeStyle=orthogonalEdgeStyle;rounded=0;orthogonalLoop=1;jettySize=auto;html=1;entryX=0.5;entryY=0;entryDx=0;entryDy=0;strokeColor=#CC0000;" edge="1" parent="WIyWlLk6GJQsqaUBKTNV-1" source="nmsRLobFBW5yZ9I8E1sv-36" target="nmsRLobFBW5yZ9I8E1sv-38">
          <mxGeometry relative="1" as="geometry" />
        </mxCell>
        <mxCell id="nmsRLobFBW5yZ9I8E1sv-36" value="&lt;span&gt;server_thread&lt;/span&gt;&lt;br&gt;&lt;span&gt;循环处理&amp;nbsp;&lt;/span&gt;&lt;br&gt;interactive_port" style="rounded=0;whiteSpace=wrap;html=1;" vertex="1" parent="WIyWlLk6GJQsqaUBKTNV-1">
          <mxGeometry x="60" y="910" width="120" height="60" as="geometry" />
        </mxCell>
        <mxCell id="nmsRLobFBW5yZ9I8E1sv-42" style="edgeStyle=orthogonalEdgeStyle;rounded=0;orthogonalLoop=1;jettySize=auto;html=1;entryX=0;entryY=0.5;entryDx=0;entryDy=0;strokeColor=#CC0000;" edge="1" parent="WIyWlLk6GJQsqaUBKTNV-1" source="nmsRLobFBW5yZ9I8E1sv-38" target="nmsRLobFBW5yZ9I8E1sv-40">
          <mxGeometry relative="1" as="geometry" />
        </mxCell>
        <mxCell id="nmsRLobFBW5yZ9I8E1sv-38" value="hash_foreach&lt;br&gt;遍历新的数据" style="rounded=0;whiteSpace=wrap;html=1;" vertex="1" parent="WIyWlLk6GJQsqaUBKTNV-1">
          <mxGeometry x="60" y="1020" width="120" height="60" as="geometry" />
        </mxCell>
        <mxCell id="nmsRLobFBW5yZ9I8E1sv-43" style="edgeStyle=orthogonalEdgeStyle;rounded=0;orthogonalLoop=1;jettySize=auto;html=1;entryX=0;entryY=0.5;entryDx=0;entryDy=0;strokeColor=#CC0000;" edge="1" parent="WIyWlLk6GJQsqaUBKTNV-1" source="nmsRLobFBW5yZ9I8E1sv-40" target="nmsRLobFBW5yZ9I8E1sv-41">
          <mxGeometry relative="1" as="geometry" />
        </mxCell>
        <mxCell id="nmsRLobFBW5yZ9I8E1sv-40" value="pthread_mutex_&lt;br&gt;unlock" style="rounded=0;whiteSpace=wrap;html=1;" vertex="1" parent="WIyWlLk6GJQsqaUBKTNV-1">
          <mxGeometry x="230" y="1020" width="120" height="60" as="geometry" />
        </mxCell>
        <mxCell id="nmsRLobFBW5yZ9I8E1sv-41" value="hash_foreach&lt;br&gt;落盘" style="rounded=0;whiteSpace=wrap;html=1;" vertex="1" parent="WIyWlLk6GJQsqaUBKTNV-1">
          <mxGeometry x="420" y="1020" width="120" height="60" as="geometry" />
        </mxCell>
      </root>
    </mxGraphModel>
  </diagram>
</mxfile>
